<svg xmlns="http://www.w3.org/2000/svg" xmlns:xlink="http://www.w3.org/1999/xlink" width="278.7768859863281" height="278.7768859863281" viewBox="0 0 278.7768859863281 278.7768859863281" fill="none">
<g  clip-path="url(#clip-path-oZAKGVZn7A3Nd1AWO_86I)">
<path d="M178.052 43.2558C178.084 43.2884 178.138 43.3006 178.146 43.3556C178.155 43.4143 178.231 43.4324 178.261 43.4469C178.454 43.541 178.582 43.5846 178.792 43.6436C178.501 43.9724 178.531 43.9846 178.613 44.2726L178.508 44.6403L177.626 44.5453L177.474 44.7775L177.15 44.4685C177.194 43.3377 177.091 43.2864 178.052 43.2558ZM169.531 35.0714C168.996 35.0189 167.784 35.0251 167.378 35.0912C166.555 35.225 166.2 36.0485 165.794 37.0088C164.421 40.2644 165.643 38.8298 165.131 41.8399C166.146 42.9077 164.908 42.3425 167.258 43.0889C167.776 42.7759 167.505 42.9424 168.153 42.7379C168.233 41.8878 168.544 39.6167 169.636 38.8156C170.575 37.9635 173.65 39.0991 173.962 38.9188C175.107 38.8961 175.23 38.9976 175.947 39.0573C175.883 39.2787 175.808 39.5494 175.622 39.6586C175.334 39.8275 175.034 39.7303 174.781 39.6994L174.344 39.6946C173.419 41.496 174.033 41.4838 173.948 42.2905C173.921 42.5434 173.887 42.7296 173.874 43.0562C173.813 44.7218 174.075 44.408 174.097 44.6339C174.099 44.6461 173.623 45.5784 174.517 45.8129C174.777 47.1763 175.042 45.7661 175.117 46.9391C175.142 47.3234 174.881 47.4388 174.396 47.5034C173.88 47.203 174.276 47.5825 173.869 47.093L172.763 45.8435C172.435 45.3148 172.787 45.9146 172.56 45.2893L172.138 44.213C171.658 43.017 171.444 43.1877 170.208 42.849C168.887 43.6682 169.254 44.2328 168.972 45.6816L168.786 46.1541L169.298 46.437C169.452 46.816 169.638 47.0941 169.811 47.3575C170.173 47.9079 169.975 47.7177 170.602 48.0673C170.61 48.7323 171.803 49.4282 172.496 49.7893L173.193 50.4011C173.226 50.4345 173.275 50.4703 173.306 50.5046L173.894 51.59C173.433 52.2646 173.486 52.4515 172.827 53.1296C170.44 55.588 172.206 53.7915 170.739 54.6685C169.416 55.4591 169.382 55.2229 167.566 55.2241L167.264 55.2431C165.844 55.3514 163.888 54.2575 163.128 53.5315C162.701 53.1239 162.883 53.2291 162.495 53.0064C161.559 52.4686 161.898 52.2552 161.324 51.7928C159.845 50.6037 159.115 53.1611 158.524 53.6847C157.894 55.4277 157.685 55.7086 158.342 56.1463C158.999 56.449 159.303 56.489 159.869 56.9054C162.404 58.7746 162.867 58.1657 165.553 58.6161C165.854 58.6669 166.413 58.6297 166.917 58.7851C168.286 59.2066 169.42 59.3633 170.665 58.7967L173.115 57.6175C173.815 57.2271 173.16 57.4556 174.184 56.8833C174.459 56.7294 175.781 55.0052 175.807 54.9563C175.962 54.6655 175.933 54.5087 176.188 54.1286C176.466 53.7133 176.097 54.2715 176.377 53.9268C177.23 52.8788 177.243 52.3139 177.571 51.8878C177.581 51.8748 178.093 51.4408 178.112 51.431C178.606 51.1758 178.96 51.2685 179.481 51.2096C180.109 51.1381 180.248 50.9902 180.93 50.9026C181.44 50.8368 181.886 50.7614 182.29 50.6517C184.584 50.0315 185.891 49.0728 184.845 46.7921C182.31 46.9755 183.089 47.9426 181.751 47.8006L181.11 47.9075C179.782 48.2372 180.092 47.8293 179.383 47.6753C179.621 46.8088 179.397 47.3094 179.827 46.8091L180.339 46.7201C180.582 46.1208 180.582 46.1356 181.2 45.6111C181.51 45.3487 181.239 45.5304 181.531 45.3665L182.197 45.0941C183.875 44.3877 183.115 42.4315 182.003 41.8833L179.413 41.3419L179.014 40.775L178.449 40.2905C178.189 40.3582 178.061 40.3778 177.694 40.3994C177.039 40.4376 177.499 40.3163 176.905 40.4796C176.647 40.2055 176.329 39.9138 176.101 39.6694C176.636 39.5966 176.596 39.4416 177.116 39.1382C177.888 39.8316 178.663 39.0124 179.23 39.9214C180.299 40.0439 182.188 40.4549 185.028 41.4448C188.621 42.6977 188.841 43.2365 190.117 43.4058C189.736 43.9968 190.25 43.5971 189.957 44.6559C189.558 46.097 188.303 46.7365 189.11 48.56L189.041 48.9725L189.594 48.9246L190.392 49.4322C190.999 49.2905 191.022 49.1207 191.695 49.2551C191.663 49.2009 191.568 49.0122 191.545 48.9487C191.514 48.8602 193.719 45.6292 193.381 43.221L192.851 42.41C192.403 41.8652 192.838 42.2053 192.388 41.8224C192.292 41.7402 192.051 41.6387 191.901 41.5341C191.083 40.964 191.416 41.0366 190.171 40.695L189.693 40.3444L189.389 40.2426C189.002 40.521 189.662 40.7157 189.039 40.4422C189.01 40.3665 188.915 40.1287 188.841 40.0547C188.559 39.7729 188.798 39.9798 188.357 39.8534C187.262 39.1005 183.258 37.7895 182.556 37.7399C181.516 37.6662 181.597 37.7053 180.512 37.3467C180.339 37.5282 175.172 36.3163 174.739 36.2466C171.654 35.7018 173.849 36.1933 172.646 35.6502L171.17 35.3537C170.748 34.7987 169.862 35.1286 169.53 35.0717L169.531 35.0714ZM182.117 28.7407C182.039 28.8388 181.842 29.0299 181.842 29.0307L181.524 29.5035L180.454 29.0344C181.128 28.1338 181.228 28.0604 181.711 28.0017C181.731 28.0428 182.011 28.1885 182.022 28.2121L182.118 28.7407L182.117 28.7407ZM172.717 30.6924C172.769 30.1385 172.864 30.0974 173.261 29.8879C173.386 29.8224 173.645 29.766 173.706 29.7425C174.223 29.541 173.665 29.8284 174.08 29.5648C174.626 29.6172 175.485 29.5891 176.013 29.6946C176.495 29.791 176.216 29.8822 176.831 29.7964C177.769 29.6651 177.277 29.7598 177.568 29.4502C178.133 30.2312 177.928 29.5517 178.743 30.1286C178.937 30.3945 179.006 30.492 179.175 30.7329C178.752 32.3603 178.948 31.4492 177.571 32.1803C177.232 32.3603 176.603 32.5808 176.328 32.9023C176.326 32.8997 176.327 32.6242 175.513 32.4663L173.807 32.2279C172.958 32.1213 173.565 32.0196 172.86 32.2299C172.671 31.2347 172.411 31.6987 172.717 30.6924ZM170.037 34.1657L170.239 34.2879L170.732 34.378C172.151 34.7785 171.078 34.8383 172.146 34.5348C173.145 34.2507 174.43 34.8936 175.748 34.4727C175.88 34.4304 176.07 34.2456 176.445 34.2312C176.499 34.2292 177.989 34.3953 178.077 34.4151L178.569 34.2453C179.023 34.0775 178.584 34.2884 178.872 33.9026C179.779 33.906 179.08 33.5758 180.048 33.9916C180.37 34.1297 180.662 34.393 180.853 34.6793C180.58 35.4168 180.755 35.4056 181.318 35.3625C182.03 35.2165 181.201 35.5215 182.802 35.0501C183.125 33.4315 183.022 33.5769 182.564 32.735L182.367 32.0111C182.961 31.3965 182.859 31.6494 183.024 30.8752C183.546 30.7497 183.612 30.6998 184.008 30.4662C184.226 29.8998 184.379 29.7502 184.836 29.3924L185.271 29.0843L185.524 29.3428C185.832 29.2085 185.857 29.1143 185.963 29.0353C186.566 29.1554 186.419 29.1537 187.098 29.001C188.298 26.8866 183.98 26.5017 183.97 26.4943C183.486 25.8429 183.498 25.7516 183.733 24.9905C183.832 24.6705 183.877 24.3604 183.887 24.3241C184.018 23.8379 183.877 24.2847 184.277 23.6971C183.908 23.3711 183.899 23.4459 183.763 23.0153C183.722 22.8863 183.66 22.3755 183.674 22.2326C183.302 21.8802 183.42 22.2374 183.27 21.7053C182.188 21.7997 181.58 22.8525 181.497 23.3211C181.352 24.1359 181.477 23.5042 181.551 23.8262C181.178 24.1754 181.457 23.9175 181.594 24.0972C181.565 24.6545 181.503 23.924 181.557 24.6026C181.593 25.0587 181.591 24.949 181.717 25.2061C181.481 26.3578 179.112 25.504 177.968 26.6036C176.798 27.729 177.989 27.7406 174.787 27.414L173.237 25.7753C173.502 24.7463 173.301 23.913 174.904 24.0768C175.602 24.1936 176.179 24.5017 176.578 24.2596L177.047 24.4493C177.073 24.4853 177.14 24.4924 177.145 24.5405C177.15 24.5879 177.232 24.6066 177.255 24.6117C177.668 24.7047 177.455 24.7135 177.677 24.627C179.705 24.9893 179.467 24.5074 179.876 23.9172C179.886 23.9025 179.928 23.8568 179.937 23.8446C179.945 23.8336 179.98 23.7885 179.987 23.7806C179.992 23.7729 180.016 23.7406 180.026 23.7182C179.317 22.1866 176.421 22.1552 175.531 21.8439C174.696 21.5523 174.498 21.2427 173.841 20.8323L173.708 20.4244C173.612 20.1607 174.028 20.2767 173.206 19.9643C172.424 19.6672 171.761 20.0825 170.985 20.4499C170.938 20.9981 170.74 21.7518 170.712 22.2961C170.615 24.1771 170.717 25.2659 170.255 27.2079C169.939 28.5351 169.785 28.4334 169.773 28.9444C169.772 28.9671 169.794 29.0224 169.792 29.0462L169.664 29.5766C169.328 30.751 169.725 30.266 169.281 31.3468C168.977 32.0864 169.281 31.5416 169.495 33.047C169.592 33.7278 169.482 33.7971 170.037 34.1656L170.037 34.1657ZM189.572 29.7788L189.174 30.0248L188.939 30.8395C188.214 30.5943 187.338 30.369 186.891 30.9243C186.33 31.621 186.527 32.3277 186.947 32.7997L187.047 33.112C187.053 33.1353 187.069 33.2181 187.077 33.2444C187.084 33.2662 187.09 33.3326 187.098 33.3538C187.183 33.5834 186.941 33.3745 187.318 33.6245L187.199 34.1439C186.382 33.9083 187.019 34.0599 186.543 34.0758L186.16 34.1045C186.134 34.1045 186.075 34.0906 186.049 34.0903C184.017 34.0668 184.425 36.2517 184.432 37.1389C186.541 37.8796 187.587 38.6045 188.546 37.7878C188.943 37.4499 189.21 36.9159 189.444 36.5131C189.87 35.7828 189.856 35.6643 190.18 34.833L190.918 33.4703C191.606 32.2934 191.072 33.0877 191.46 32.2818C191.732 31.7168 192.093 31.4821 192.388 31.0175C192.856 30.2814 192.507 29.8729 193.286 28.3592C192.243 26.8704 191.062 26.0161 188.861 25.5002C188.224 25.9118 187.946 26.1751 187.686 27.1485L188.251 28.004C188.817 28.6191 188.751 28.0342 189.296 28.8528C189.422 29.7539 189.16 29.0487 189.652 29.5737L189.572 29.7789L189.572 29.7788ZM89.028 38.5784C88.9993 38.6393 88.9149 38.8017 88.8871 38.8495C88.594 39.3518 88.5574 39.1896 88.488 39.6882C88.0132 39.752 88.103 39.6806 87.5435 39.7429C87.3938 39.0964 87.0534 39.1814 86.8498 38.3248C86.6514 37.4891 86.8425 38.1621 86.9065 36.8116L87.9123 36.2132C88.344 36.7464 88.5203 36.6348 88.7867 37.3185C89.0113 37.8945 88.9398 38.1003 89.028 38.5784ZM98.0915 34.774C98.0949 34.7731 99.7962 33.8737 100.254 33.8726C100.454 35.5722 98.333 35.3622 97.3485 36.2177L96.9551 35.3109C97.1336 35.0226 96.4392 35.2593 97.4103 34.8565L97.9812 34.8043C98.0081 34.7981 98.0671 34.7828 98.0915 34.774ZM101.036 37.6925C101.432 37.6373 101.11 37.4247 102.19 38.5823L101.559 38.9752C100.718 39.2079 99.4739 40.0609 99.093 39.6578C98.7735 39.0535 98.9076 38.8032 99.7084 38.2836C100.403 37.9593 100.842 37.7215 101.036 37.6925ZM95.4952 31.4969L95.5865 30.7766L96.3119 30.2992L97.5138 29.4769C97.8746 29.5656 97.336 29.9045 97.9628 29.4571L97.9203 29.9299C97.9548 30.6 98.1246 29.791 97.9273 31.1031C97.2034 31.4507 97.1954 31.5992 96.5143 31.6874C95.4598 31.8243 96.1101 31.894 95.4952 31.4969ZM101.908 43.1308L101.355 43.3834L100.854 43.2147C100.727 42.9236 100.704 42.4134 101.261 42.0664C101.993 41.6664 102.63 41.1684 103.124 41.9207C103.806 42.9582 101.949 43.1308 101.908 43.1308ZM94.3035 48.1722L94.7508 48.0611C95.8294 47.5571 96.5721 47.1501 96.1256 45.9918C95.9 45.4076 95.6001 45.0981 95.4484 44.7644C95.2033 44.2244 95.1687 43.8151 94.9819 43.2867C94.782 42.7204 94.4473 42.5908 94.2517 42.2841C94.0501 41.9672 94.1082 41.608 93.6646 41.1372C92.7056 40.1187 92.9803 39.6706 92.0069 39.1002C92.0514 38.2895 91.9995 38.4695 91.7152 37.6886C91.3697 36.7376 91.402 37.2447 91.6268 36.7554L90.2922 33.9648C90.6415 33.3692 90.0456 34.8627 90.4751 33.4826C90.4864 33.4461 90.5034 33.3647 90.5182 33.3058L91.8371 32.6282C92.2419 33.2611 92.3448 33.1778 92.7113 33.9911C93.0056 34.6433 92.8182 34.9001 92.8199 35.7304L92.6558 36.6236C92.522 37.7113 92.6164 37.1815 92.8409 37.6806L93.2252 37.7728L93.3318 38.139C94.6068 38.6305 94.4801 39.1734 95.4374 39.9177C95.4669 40.9952 95.0026 40.3225 95.7506 40.7517C95.6508 41.4022 95.8702 41.3033 96.2274 42.0307C96.2634 42.1044 96.4445 42.5628 96.4667 42.5902C96.4834 42.6109 96.5242 42.6495 96.5421 42.6657C97.1016 42.9361 96.55 42.6143 97.0574 43.6178C97.2102 43.9205 97.2292 44.1725 97.56 44.7474C98.3129 46.0567 98.2729 45.8767 99.3254 46.3232C99.8504 46.0462 99.5689 46.2424 100.181 46.4519C101.428 46.5077 100.492 46.1701 102.107 46.495C103.298 45.0771 106.267 44.35 107.117 43.9591C107.549 43.761 107.577 43.6008 107.986 43.4242C108.626 43.1475 108.273 43.5081 109.062 43.1753C109.863 42.8371 110.314 42.3258 110.803 41.5148C109.668 39.7122 108.582 40.4926 106.789 40.8937L106.551 40.0359C108.124 39.0109 108.41 39.1496 108.14 37.582C106.04 36.4938 107.592 37.4924 106.163 36.9799L105.784 35.9719L106.35 35.5667L107.031 35.3607L107.586 34.9669L107.891 34.0596C107.428 33.2058 107.325 32.6955 106.52 32.5422C106.516 32.543 106.032 32.6037 106.022 32.6043C105.992 32.606 105.926 32.6326 105.88 32.5922C105.837 32.5533 105.791 32.5777 105.746 32.5709C105.003 32.9953 105.363 32.9027 103.956 32.7486C103.955 32.6971 103.929 32.5584 103.954 32.5794C103.98 32.6004 103.95 32.4442 103.944 32.4057C103.897 32.0873 104.002 32.4779 103.843 31.9096L105.007 31.3478C105.173 30.7944 105.481 30.3551 105.469 29.9894C105.437 29.0307 104.444 28.2827 102.876 28.9701C102.209 29.2623 102.297 29.2351 101.498 29.1909L100.798 28.2002C102.13 26.6731 102.675 26.7471 104.464 25.8806C104.638 22.7469 104.263 23.9363 103.374 22.5856C101.464 23.3025 102.623 23.2724 101.142 23.8575C100.161 24.2447 99.4702 24.1412 98.7556 24.6523C98.0453 25.1606 95.8668 25.9855 93.7893 27.6639C93.6297 27.5893 93.4574 27.6236 93.2873 27.5958C92.9585 27.1499 93.2612 27.3803 92.8182 27.5009L92.5395 27.6695C92.1501 27.0198 92.2535 27.0947 91.7027 26.9195C90.7276 24.9477 89.7585 24.5347 88.1033 23.9284C87.148 23.5783 87.2249 23.6639 86.1882 24.188C86.6491 25.9857 85.4912 25.3672 87.3039 27.3878C88.6649 28.9049 92.4347 29.1821 85.6811 32.6191C84.3191 33.3122 85.5507 33.1492 83.7445 33.5029C81.8016 33.8842 78.5265 36.1338 79.7907 38.1691C79.8777 38.3091 80.6731 39.2477 81.0844 39.5671C82.3453 40.5456 81.7857 39.8954 82.9148 39.8046C84.5708 41.0068 84.5226 41.953 85.3299 43.4993C87.1398 46.9667 89.0895 48.5852 89.1331 52.6769C89.1365 52.9768 88.9279 54.8125 88.9169 54.8482C88.6742 55.6034 87.3759 56.1964 86.6489 56.6476C86.6962 57.6843 86.4269 58.0786 86.8943 58.6662C88.7627 61.0147 92.2802 57.6741 92.0409 56.2772L93.196 55.6561L93.8279 56.0093C95.572 57.5034 95.5153 56.348 97.2385 55.9016C97.6439 55.7964 99.4232 56.265 99.917 56.4515C100.323 55.9996 100.463 55.8656 100.543 55.3097L102.733 55.7822C103.483 56.1235 102.776 55.9254 103.243 56.2882C103.268 56.3075 103.32 56.3412 103.348 56.3588C103.393 56.3863 103.741 56.5204 103.743 56.5212L107.48 56.9087C108.603 56.7675 109.37 56.7622 110.433 56.8968C111.3 57.0068 111.265 56.7055 111.958 57.2968C112.236 56.8086 112.872 57.0071 113.503 57.0037C113.546 57.0034 113.604 57.0003 113.647 56.9994C113.707 56.9981 113.882 56.9743 113.943 56.9743L119.174 56.8113C120.851 56.7186 124.445 52.9672 121.614 51.6307C120.363 51.7282 120.905 51.1525 120.631 51.881C119.486 52.0596 118.019 52.6602 116.877 52.7345L115.154 52.5279C114.261 52.4564 113.993 52.6739 113.143 52.8743C112.437 52.7691 112.541 52.5673 111.784 52.3935L108.617 52.146C108.031 52.0848 107.751 51.7602 107.032 52.2064L106.717 51.8569C106.003 52.1106 106.252 52.0151 105.501 52.0542L104.109 51.7781C104.071 51.76 104.022 51.7237 103.984 51.7064C103.956 51.6936 103.626 51.5811 103.6 51.5726L102.915 51.3611C102.378 51.254 102.784 51.4317 102.32 51.299C101.872 51.1709 102.237 51.1434 101.661 51.0029C100.862 50.8084 101.679 51.2291 100.609 50.6021C99.3838 49.8832 100.516 51.1013 98.0314 49.7103C97.1756 49.2307 97.4633 49.4444 96.5622 49.1975L95.9748 49.0226C94.6959 48.6899 94.204 49.7384 94.2128 50.233C93.8551 50.673 93.8058 50.8484 93.134 51.1421L92.8335 50.997C92.8043 49.9895 92.6782 50.4 92.1557 49.4957C91.8204 48.9146 91.8615 48.5334 91.686 48.0923C91.3544 47.2595 90.8776 46.2563 90.1771 45.2863C90.3659 44.4932 89.5521 43.9965 90.4498 42.9069L91.0499 42.5367C91.993 42.9761 92.0123 44.1754 92.7054 45.3813C92.7555 45.4688 93.5688 46.8575 93.5696 46.8592C93.8557 47.4256 93.8885 47.5948 94.3035 48.1725L94.3035 48.1722ZM105.018 50.4725C106.268 49.7783 107.376 49.2775 107.374 48.098C107.369 45.1533 103.502 45.7407 103.3 48.1912C103.265 48.6215 103.55 49.4181 103.823 49.6839C103.833 49.6939 104.87 50.3748 105.018 50.4725ZM114.424 45.9745C113.464 44.977 114.401 46.1035 114.052 45.0108C113.94 44.659 113.475 43.9064 113.279 43.5084C111.925 43.2774 112.582 42.9862 110.91 43.3431C110.837 43.7173 110.981 43.3771 110.71 43.8202L110.016 45.5505C109.732 46.4014 110.269 48.2312 111.08 48.346C111.119 48.3519 111.185 48.3565 111.229 48.3588L112.281 48.2794C112.348 48.2581 112.871 47.9151 112.906 47.8905C114.44 46.7719 113.673 46.8286 114.424 45.9745ZM39.4727 87.904C39.6663 87.0049 40.0762 85.9107 40.2905 85.1638C40.4796 84.5036 40.6244 84.7193 40.5399 83.9058C41.0343 83.1946 41.5247 82.6634 41.915 81.8943C42.5151 80.7108 42.4959 79.8247 43.7448 78.2657C44.6825 77.0947 44.7023 77.2435 44.5663 76.6284C45.3004 75.6887 46.7135 74.9636 47.6183 73.9516C48.9699 72.4402 48.2686 72.1207 47.91 70.6626C47.3465 70.6099 46.9341 70.302 46.2844 70.4378C45.6222 70.5759 45.2627 70.9313 44.8795 71.3579C44.4625 71.8222 44.0073 72.3177 43.6796 72.6792C42.7994 73.65 43.0526 72.7665 42.6257 73.7359L41.8762 74.8417L41.9026 74.8451L41.2792 75.0484L41.1945 75.1493C40.2587 74.9681 40.9334 75.3556 40.1048 74.7042C40.1405 74.4344 40.206 74.3391 40.2264 74.2549C40.3126 73.8986 40.2831 73.9114 40.2534 73.622C40.9907 73.4233 41.0547 73.3402 41.6146 72.5479C42.3306 71.534 44.9385 68.4275 44.0172 67.6874C43.7663 67.4858 43.9713 67.5825 43.7337 67.3531C42.7921 66.4432 41.5477 66.7854 40.8696 67.6C40.744 67.7511 40.5161 68.3654 40.4285 68.5114C39.3097 70.3743 39.9214 68.2101 38.984 71.4705C38.5815 71.6842 38.2674 72.0074 37.8932 72.1822C37.1537 72.5284 37.3513 72.2038 36.718 72.8127C36.0737 72.1706 34.8862 72.3489 34.0574 72.7914C33.9225 73.3989 33.6798 74.0174 33.9281 74.5792C33.9468 74.6217 33.9772 74.6767 33.9996 74.7201C34.1285 74.9664 34.2397 75.0557 34.3485 75.2573C35.598 77.5711 30.0226 82.0908 29.4199 82.7668C29.6617 83.7071 29.6104 83.7465 30.1966 84.4818C30.689 85.0986 31.2412 88.0254 33.9715 86.1372C34.3403 85.8597 34.649 85.062 34.9631 84.5756C35.3803 83.99 35.3562 84.1209 35.3738 83.052C35.3925 81.9516 36.9822 76.8484 39.0716 78.7283C38.5001 81.5689 34.8474 84.8483 34.8902 85.8937C35.2706 87.5457 34.9809 86.3407 36.2426 87.4258C37.5661 88.5648 35.6578 87.3207 38.2617 88.8948C38.6762 88.5968 39.1663 88.3094 39.4727 87.904ZM57.5892 102.439C56.8664 100.669 55.4216 97.7343 57.8744 96.6835C58.6394 97.1064 58.7766 97.4398 59.0797 97.9784C59.5426 98.8018 59.3416 98.9929 59.4932 99.6511C59.9156 101.483 59.3782 102.172 57.7275 102.765L57.5892 102.439ZM50.8816 88.149C50.5976 87.8388 50.4204 87.7087 50.4122 87.3048C50.4028 86.8189 51.5398 85.7956 51.9616 85.5751L52.7445 86.0913C52.2414 87.3745 52.1331 87.815 50.8816 88.149ZM48.6286 80.2275C48.9858 80.0918 48.7366 80.2905 49.089 80.0297C49.4439 79.7669 49.2851 79.8769 49.6959 79.427C51.6118 80.4699 50.2968 81.5927 48.8455 83.4361C48.4489 83.9404 48.376 83.9404 47.9854 84.5183C47.5307 85.191 47.8386 84.4636 47.4701 85.1261C47.2736 85.4796 47.378 85.5751 46.8445 86.2268C46.5854 86.5434 46.4397 86.6217 46.2801 87.0123L45.5822 86.6979C45.6074 85.8333 45.9292 85.3886 46.0292 84.6748C46.9479 83.3584 47.2337 83.0749 47.8241 81.7736L48.6286 80.2275ZM40.0121 88.505C40.3988 89.0424 40.3993 88.9274 40.8158 89.3304C40.8736 89.386 41.2704 89.7485 41.2744 89.7531C41.6979 90.2849 41.5284 90.8166 43.45 92.0982C44.1706 92.5789 43.541 92.5316 44.3219 92.7584C45.8288 93.1958 46.3345 93.7494 47.641 92.0472C48.126 91.9916 47.9976 92.0168 48.4707 92.0477L48.5294 92.0483L48.3018 92.9449C46.0162 96.9738 45.1808 95.0794 44.7681 96.9117C44.3786 98.64 44.2618 97.4778 44.2454 98.6085C44.2451 98.6343 44.2794 99.0045 44.2783 99.0598C44.2723 99.2812 44.2471 99.32 44.2233 99.5255C44.1623 100.048 44.0929 100.053 44.2599 100.538C44.39 100.914 44.2326 100.595 44.4574 100.925C44.4844 100.964 44.689 101.177 44.7777 101.294C45.1236 101.747 44.9076 101.644 45.4612 102.163C46.0822 102.745 47.2153 103.324 47.946 103.191C48.7091 103.052 48.9333 102.421 49.5941 102.121L49.8739 99.4453C49.9314 98.2652 50.6092 97.8327 51.0834 96.3731C51.5613 94.9019 52.4171 96.3836 52.4185 96.3887C52.4021 96.8741 51.2016 98.2519 51.4148 99.4366C51.5095 99.6418 51.8797 100.291 52.2975 100.402C52.7088 100.511 53.4101 100.206 53.5283 100.36C54.3112 101.379 54.064 102.229 54.7239 102.913C55.0916 103.703 55.2353 104.569 55.569 105.365C56.9593 111.037 52.9982 110.399 56.1685 112.311L58.2437 111.24C59.589 109.995 57.9484 105.824 59.1089 104.745C59.1262 104.748 59.5786 104.231 59.6914 105.4C60.762 104.833 60.4414 105.838 61.2632 104.544C61.8573 104.588 62.5972 103.192 62.8092 102.607C63.2472 101.397 62.7809 101.598 62.7347 100.7C62.6987 99.9948 62.8418 99.2903 62.8534 98.6415C62.8696 97.72 62.3423 96.6541 61.7119 95.9656C61.6935 95.9446 59.8598 92.6927 57.5064 92.9062C57.0906 92.9444 56.3102 93.1213 55.9179 93.3413C55.1276 93.6871 54.5896 93.9737 53.8517 94.3748C53.1473 93.731 53.5306 93.1139 52.8154 93.4303C53.166 92.6068 52.9186 92.8356 53.4427 92.1167L54.1159 91.4248C54.7098 91.0166 56.4324 88.034 57.0931 87.1887C57.4191 86.7717 57.2062 86.4213 57.9739 85.5925C59.5318 82.7972 64.1775 78.3582 64.1432 78.1121C66.2462 75.6072 65.8735 75.4535 65.6407 73.6683L64.8374 73.0517C64.1353 73.2099 64.5681 73.1189 63.8473 73.1314C63.4575 73.6311 63.0873 74.3633 62.7216 74.6788C62.3231 75.0229 61.9364 75.0728 61.5832 75.5255C61.1084 76.1338 61.2521 76.3439 60.5849 76.9026C58.6426 78.5283 58.1567 79.5604 56.721 81.9556C56.2977 82.448 55.7104 82.6657 55.2693 82.8145C54.0907 81.9123 53.6278 81.7343 55.531 79.4869C55.0984 78.7417 55.5006 77.7139 53.348 76.1174C53.1238 75.9513 52.7884 75.6004 52.4976 75.3143C50.4076 73.2589 49.9867 73.3752 49.1675 73.577C48.3786 74.9013 47.7816 74.5445 47.2683 76.2557C46.688 77.0551 46.7237 77.0959 46.1602 77.878C45.4138 78.9135 45.4334 78.7293 45.3251 79.7489C44.4416 80.4385 44.7568 79.7866 44.056 81.554C43.7967 82.2079 43.361 82.376 43.0721 82.9546C42.7175 83.6646 42.745 84.2656 42.1608 84.8731C41.8671 85.1783 41.7379 85.116 41.5485 85.4369C41.3067 85.8457 41.5579 85.721 40.9952 86.3638C40.7956 86.3652 40.1369 87.7434 40.0121 88.5051L40.0121 88.505ZM67.0895 88.344C66.5209 88.6657 66.4514 88.9872 65.7734 89.1938L65.0945 88.7808L64.455 87.8975C65.1345 87.514 65.4052 86.5085 66.403 86.6737C67.2715 86.8171 67.1618 87.7582 67.0895 88.3439L67.0895 88.344ZM71.0422 84.511C69.3436 83.0908 69.4051 83.3825 68.4544 82.762C67.6131 82.2129 67.64 81.4184 66.1473 81.6177C64.3002 81.864 64.4723 81.7806 62.9617 83.9253C62.4526 84.6479 62.7644 84.5405 62.2599 85.2423L59.582 89.265C60.4159 91.2265 60.692 90.7058 61.0789 91.1594C62.1578 92.4233 62.7165 93.1479 64.3184 94.117C66.6859 95.5497 68.4153 92.1211 69.6963 89.9198C69.4156 89.8412 72.4668 87.9916 71.9577 85.6669C71.829 85.0805 71.7947 85.1397 71.0422 84.511ZM139.389 61.0163C160.984 61.0163 180.536 69.7694 194.688 83.9219C208.84 98.0739 217.594 117.626 217.594 139.222C217.594 160.817 208.84 180.369 194.688 194.521C187.418 201.792 178.722 207.636 169.056 211.603L168.417 208.636C177.517 204.826 185.709 199.28 192.578 192.411C206.19 178.799 214.61 159.994 214.61 139.222C214.61 118.45 206.19 99.6437 192.578 86.0318C178.966 72.4198 160.16 64 139.389 64C118.617 64 99.811 72.4198 86.1984 86.0318C72.5865 99.6437 64.1667 118.45 64.1667 139.222C64.1667 159.993 72.5865 178.799 86.1984 192.411C93.1464 199.359 101.448 204.953 110.674 208.766L109.895 211.674C100.159 207.707 91.4031 201.835 84.0886 194.521C69.9366 180.369 61.183 160.817 61.183 139.222C61.183 117.626 69.9369 98.0736 84.0886 83.9219C98.2406 69.77 117.793 61.0163 139.389 61.0163ZM193.738 122.966C193.738 122.966 185.337 142.79 170.553 146.822C155.768 150.855 145.017 155.558 144.344 170.007C143.672 184.455 144.008 197.895 144.008 197.895L150.728 197.895C150.728 197.895 148.041 186.136 163.161 182.103C178.281 178.071 202.474 162.95 193.738 122.966ZM85.0393 122.966C85.0393 122.966 93.4395 142.79 108.224 146.822C123.008 150.855 133.76 155.558 134.432 170.007C135.104 184.455 134.768 197.895 134.768 197.895L128.049 197.895C128.049 197.895 130.736 186.136 115.616 182.103C100.495 178.071 76.303 162.95 85.0393 122.966ZM163.108 81.5097C163.108 81.5097 138.163 77.9851 132.344 86.2979C130.889 88.3757 129.673 91.0599 129.303 94.2987C128.206 103.918 129.072 117.138 128.863 124.252C128.582 133.739 120.788 132.444 116.641 131.025C112.495 129.606 110.863 126.873 108.318 125.752C108.318 125.752 109.017 132.786 114.437 137.893C118.929 142.123 126.922 145.026 134.057 144.841C149.803 144.437 152.139 138.932 151.782 117.983C151.426 97.0356 148.518 88.7754 163.108 81.5097ZM252.644 156.795C250.846 155.39 244.96 150.212 244.607 149.804C244.211 149.336 244.193 148.536 244.247 148.227L244.329 147.764C244.361 147.584 244.288 147.544 244.133 147.517L243.515 147.408C243.361 147.381 243.305 147.397 243.273 147.578C243.232 147.809 243.209 148.39 242.896 150.167C242.561 152.073 242.298 153.115 242.253 153.373C242.225 153.527 242.272 153.562 242.375 153.58L243.045 153.698C243.199 153.725 243.281 153.713 243.309 153.558L243.431 152.863C243.526 152.322 244.041 151.962 244.479 152.039C245.277 152.179 250.168 156.227 251.448 157.249C249.832 157.681 243.394 159.708 242.93 159.626C242.518 159.554 242.307 159.25 242.37 158.89L242.474 158.298C242.501 158.143 242.403 158.1 242.274 158.077L241.63 157.963C241.502 157.941 241.446 157.957 241.418 158.112C241.373 158.369 241.286 159.31 240.82 161.963C240.416 164.255 240.126 165.452 240.085 165.684C240.058 165.838 240.105 165.874 240.208 165.892L240.929 166.019C241.032 166.037 241.114 166.025 241.141 165.87L241.209 165.484C241.282 165.072 241.596 164.49 242.037 164.249C243.026 163.759 251.273 160.962 252.144 160.691L253.251 160.885C255.646 161.307 257.672 161.717 258.028 161.806C258.359 161.891 258.579 162.142 258.462 162.812L258.303 163.713C258.276 163.868 258.349 163.907 258.452 163.926L259.07 164.034C259.25 164.066 259.336 164.028 259.354 163.925C259.404 163.642 259.468 162.83 259.939 160.151C260.366 157.73 260.62 156.739 260.674 156.43C260.706 156.25 260.628 156.236 260.474 156.209L259.83 156.096C259.727 156.078 259.65 156.064 259.618 156.244L259.487 156.991C259.414 157.403 259.269 157.776 258.431 157.708C258.194 157.693 256.506 157.475 255.502 157.299L252.644 156.795ZM242.998 180.552C243.461 180.733 250.937 183.661 251.429 183.91C251.848 184.13 252.026 184.537 251.836 185.024L251.349 186.266C251.292 186.412 251.355 186.465 251.526 186.532L251.989 186.713C252.183 186.789 252.29 186.803 252.367 186.608C252.5 186.267 252.828 185.216 253.839 182.635C254.897 179.932 255.275 179.181 255.371 178.938C255.456 178.718 255.393 178.665 255.271 178.618L254.711 178.398C254.541 178.331 254.458 178.327 254.372 178.547L253.943 179.642C253.714 180.227 253.273 180.279 252.645 180.089C252.27 179.97 245.452 177.299 245.111 177.166L238.415 174.543L238.729 173.74C238.949 173.18 239.895 171.051 240.498 170.585C241.321 170.205 242.96 169.751 244.046 169.559C244.255 169.528 244.347 169.508 244.36 169.401L244.366 168.814C244.37 168.731 244.292 168.644 244.185 168.63C242.818 168.319 239.617 167.6 239.053 167.463C238.742 167.397 238.615 167.432 238.549 167.602C238.482 167.773 238.546 167.966 238.695 168.305C238.872 168.712 238.793 169.776 238.607 170.322C238.255 171.364 237.942 172.449 236.903 175.103L236.35 176.515C235.358 179.048 234.885 180.042 234.306 181.304C233.914 182.161 233.514 182.538 233.067 182.673C232.714 182.787 232.588 182.822 232.521 182.992C232.454 183.163 232.504 183.323 232.792 183.52C233.241 183.808 236.141 185.87 237.058 186.539C237.122 186.591 237.253 186.615 237.316 186.527L237.72 186.068C237.783 185.98 237.738 185.878 237.645 185.757C237.007 184.806 235.941 183.152 235.761 182.464C235.797 181.298 236.345 179.828 236.65 179.048L236.984 178.196L242.998 180.552ZM236.464 197.633C237.665 198.323 242.526 201.202 242.84 201.443C243.332 201.846 243.127 202.361 242.867 202.815L242.489 203.473C242.424 203.586 242.43 203.68 242.521 203.732L243.134 204.084C243.27 204.162 243.354 204.12 243.419 204.007C243.563 203.757 244.054 202.743 245.421 200.361C246.657 198.206 247.247 197.338 247.402 197.066C247.481 196.93 247.474 196.836 247.383 196.784L246.748 196.419C246.635 196.354 246.551 196.396 246.485 196.509L245.952 197.439C245.704 197.87 245.396 198.145 244.693 197.742C244.489 197.625 239.21 194.686 238.983 194.556L237.237 193.553C236.965 193.397 231.991 190.452 231.764 190.322C231.356 190.088 231.369 189.643 231.695 189.076L232.072 188.419C232.138 188.305 232.131 188.211 232.018 188.146L231.451 187.82C231.314 187.742 231.221 187.748 231.155 187.862C230.973 188.18 230.624 188.944 229.297 191.258C228.021 193.481 227.289 194.599 227.133 194.871C227.081 194.962 227.087 195.056 227.178 195.108L227.835 195.485C227.926 195.537 228.011 195.495 228.076 195.382L228.701 194.293C228.974 193.817 229.331 193.72 229.902 193.987C230.209 194.134 234.331 196.409 234.876 196.721L236.464 197.633ZM227.599 215.579C227.534 215.66 227.485 215.722 227.613 215.856L231.242 219.275C231.451 219.475 231.618 219.475 231.797 219.249C231.911 219.106 231.972 218.988 231.844 218.686C231.737 218.4 231.659 218.204 231.757 218.082C231.838 217.979 231.998 217.905 232.356 217.79C233.613 217.385 234.685 216.667 236.15 214.825C238.298 212.123 237.687 208.73 235.189 206.745C233.756 205.606 232.595 205.217 231.244 205.446C229.819 205.683 228.673 206.075 227.605 206.83C226.521 207.605 225.102 208.381 224.126 208.474C223.207 208.579 222.577 208.111 221.82 207.509C221.287 207.086 220.461 205.394 221.682 203.858C222.414 202.937 223.189 202.551 224.169 202.495C225.459 202.385 226.534 202.671 227.307 202.918C227.499 202.971 227.621 202.901 227.662 202.766L227.876 202.201C227.905 202.124 227.917 202.067 227.835 202.002L224.074 199.546C223.935 199.469 223.677 199.331 223.563 199.474C223.466 199.597 223.425 199.732 223.442 199.879L223.496 200.356C223.542 200.594 223.469 200.769 223.225 200.909C222.719 201.209 221.839 201.812 220.651 203.306C219.658 204.555 219.326 205.561 219.29 207.035C219.235 208.996 219.83 209.97 221.079 210.963C222.266 211.907 223.595 212.462 224.8 212.25C226.53 211.922 228.227 211.133 228.94 210.698C232.059 208.834 232.811 208.897 234.51 210.247C236.127 211.533 235.529 213.63 234.748 214.613C233.967 215.595 232.719 216.24 231.306 216.086C230.116 215.942 229.008 215.529 228.341 215.066C228.198 214.952 228.129 214.997 228.063 215.079L227.599 215.579ZM208.026 219.629C207.86 219.358 207.73 219.089 207.78 218.907C207.818 218.632 208.04 218.369 208.376 218.078C208.964 217.566 210.058 217.03 211.318 217.044C212.129 217.101 213.197 217.697 213.986 218.605C214.793 219.532 216.346 222.548 213.745 224.81C213.568 224.965 213.331 225.171 212.938 225.477L208.026 219.629ZM209.983 227.665C211.614 229.54 213.227 231.395 214.886 233.383C215.315 233.877 215.08 234.324 214.646 234.701L214.054 235.216C213.955 235.302 214.007 235.361 214.093 235.46L214.487 235.914C214.607 236.051 214.659 236.111 214.817 235.974C215.034 235.785 215.436 235.331 217.528 233.512C219.604 231.707 220.149 231.338 220.168 231.32C220.461 231.066 220.446 231.009 220.326 230.87L219.914 230.397C219.829 230.299 219.757 230.257 219.619 230.377L218.813 231.077C218.517 231.335 218.051 231.117 217.651 230.737C217.388 230.515 215.407 228.356 214.395 227.191L213.519 226.185L214.19 225.601C215.134 224.781 217.213 225.537 219.051 226.296C219.97 226.675 223.181 227.903 224.168 227.842C224.723 227.325 225.419 226.651 225.991 226.153C227.51 224.832 228.075 224.445 228.233 224.307C228.371 224.187 228.339 224.111 228.236 223.992L227.824 223.519C227.756 223.44 227.667 223.378 227.529 223.498C227.075 223.893 226.188 224.387 225.728 224.337C224.939 224.226 222.569 223.652 222.296 223.578C221.933 223.479 219.32 222.666 218.788 222.573C218.002 222.426 217.36 222.325 216.58 222.657L216.46 222.519C218.056 220.854 218.952 218.099 216.773 215.592C216.138 214.862 215.055 214.453 213.778 214.419C212.317 214.373 210.691 214.816 209.156 216.152C208.346 216.855 206.664 218.421 205.559 219.383C203.405 221.256 202.742 221.729 202.564 221.883C202.465 221.969 202.48 222.026 202.566 222.124L203.029 222.657C203.098 222.736 203.169 222.778 203.268 222.692L204.057 222.006C204.334 221.766 204.882 221.878 205.468 222.512C205.951 223.028 207.049 224.291 208.319 225.751L209.983 227.665ZM192.231 229.79L195.28 228.167C195.906 227.839 196.708 227.767 197.354 227.789C198.057 227.808 201.265 228.674 201.482 228.791C201.615 228.866 201.742 228.824 201.806 228.726L202.066 228.337C202.14 228.204 202.115 228.159 202.004 228.071C201.783 227.896 199.262 225.226 198.989 224.96C198.928 224.905 198.856 224.885 198.743 224.95C198.629 225.015 198.224 225.307 197.861 225.515L189.913 230.091C187.851 231.271 187.018 231.657 186.518 231.943C186.382 232.021 186.412 232.125 186.45 232.193L186.749 232.715C186.84 232.874 186.902 232.929 186.993 232.877L187.878 232.37C188.491 232.02 188.808 232.049 189.315 232.723C189.467 232.938 191.11 235.704 192.188 237.588L196.538 245.193C196.993 245.987 196.992 246.198 195.948 246.795L195.267 247.185C195.108 247.276 195.079 247.383 195.157 247.519L195.43 247.995C195.534 248.177 195.618 248.22 195.777 248.129C195.981 248.012 196.264 247.82 196.727 247.525C197.181 247.265 197.804 246.879 198.64 246.401C202.559 244.158 204.979 242.805 206.454 241.961C207.92 241.152 208.433 240.89 208.546 240.825C208.818 240.668 208.899 240.441 208.851 240.198L207.911 236.186C207.895 236.105 207.833 236.05 207.717 236.056L207.201 236.05C207.107 236.044 207.052 236.105 207.013 236.248C206.882 237.046 206.416 239.181 206.098 239.995C205.781 240.809 205.23 241.426 204.801 241.731C204.351 242.049 203.406 242.62 203.021 242.84C201.882 243.491 201.411 243.67 200.989 243.731C200.616 243.764 200.133 243.498 199.458 242.317C199.224 241.909 197.851 239.772 197.15 238.546L196.371 237.184C197.373 236.61 198.103 236.253 198.771 235.991C199.264 235.799 199.982 235.781 200.478 236.07C200.77 236.264 201.296 236.656 201.595 236.967C201.731 237.1 201.802 237.119 201.88 237.045L202.36 236.62C202.46 236.532 202.538 236.458 202.438 236.335C202.12 235.884 201.406 234.846 200.821 233.824C200.369 233.034 199.696 231.857 199.543 231.432C199.488 231.283 199.384 231.312 199.258 231.355L198.606 231.637C198.492 231.702 198.45 231.786 198.541 231.945C198.787 232.377 198.877 233.164 198.822 233.648C198.715 234.251 198.51 234.639 198.174 234.947C197.94 235.171 196.977 235.812 195.929 236.412L192.231 229.79ZM178.964 236.191C179.021 236.337 179.074 236.401 179.172 236.363L179.927 236.067C180.633 235.791 181.125 236.187 181.24 236.48C181.354 236.772 181.516 237.186 181.521 237.914C181.56 239.163 181.606 241.504 181.611 242.878C181.638 243.879 181.637 247.39 181.569 249.298L181.472 249.336C180.784 248.511 178.164 245.408 177.495 244.631C176.43 243.419 174.37 240.884 173.831 240.083C173.625 239.771 173.511 239.479 173.435 239.284C173.311 238.967 173.668 238.518 174.253 238.289L175.3 237.879C175.47 237.813 175.456 237.705 175.409 237.583L175.19 237.024C175.132 236.877 175.079 236.814 174.86 236.9C174.641 236.986 173.574 237.488 171.041 238.48C168.119 239.624 167.287 239.866 167.043 239.961C166.897 240.018 166.892 240.077 166.94 240.199L167.168 240.783C167.216 240.905 167.289 241.017 167.386 240.979L168.019 240.731C168.53 240.53 168.918 240.659 169.38 241.124C169.94 241.692 172.54 244.746 173.88 246.159C175.22 247.572 179.744 252.598 181.399 254.168C181.669 254.428 181.88 254.682 182.197 254.558C182.465 254.453 182.539 254.283 182.595 253.924C182.732 253.056 182.928 245.452 183.022 243.899C183.146 241.491 183.068 238.207 183.393 236.17C183.597 234.826 184.286 234.36 184.699 234.198L185.259 233.979C185.406 233.921 185.401 233.839 185.363 233.741L185.125 233.133C185.058 232.962 185.015 232.923 184.868 232.98C184.649 233.066 184.069 233.377 181.804 234.264C180.173 234.903 179.024 235.269 178.805 235.355C178.684 235.403 178.678 235.461 178.726 235.582L178.964 236.191ZM160.208 250.754C160.52 252.104 161.714 257.626 161.751 258.02C161.79 258.655 161.273 258.855 160.764 258.973L160.025 259.143C159.897 259.173 159.832 259.241 159.856 259.343L160.014 260.031C160.05 260.184 160.138 260.218 160.266 260.188C160.546 260.123 161.624 259.794 164.299 259.177C166.72 258.618 167.757 258.459 168.063 258.388C168.216 258.353 168.28 258.285 168.257 258.183L168.093 257.469C168.063 257.342 167.975 257.308 167.848 257.338L166.803 257.579C166.319 257.69 165.907 257.652 165.725 256.862C165.672 256.632 164.237 250.763 164.178 250.509L163.725 248.546C163.655 248.241 162.431 242.591 162.372 242.337C162.267 241.878 162.602 241.586 163.239 241.439L163.978 241.268C164.105 241.239 164.17 241.17 164.14 241.043L163.994 240.406C163.958 240.253 163.89 240.188 163.763 240.218C163.406 240.3 162.607 240.564 160.008 241.164C157.511 241.741 156.194 241.964 155.888 242.035C155.786 242.059 155.722 242.127 155.745 242.229L155.915 242.968C155.939 243.07 156.027 243.103 156.155 243.074L157.378 242.791C157.913 242.668 158.227 242.864 158.419 243.464C158.521 243.789 159.655 248.358 159.797 248.97L160.208 250.754ZM150.243 256.22L150.138 256.223C149.843 255.89 145.916 251.192 145.54 250.756C144.733 249.807 139.439 243.623 139.304 243.469C139.09 243.239 138.878 243.139 138.539 243.147C138.225 243.154 137.442 243.224 136.553 243.245C135.193 243.275 134.356 243.269 133.832 243.254C133.336 243.266 133.126 243.245 132.995 243.248C132.864 243.251 132.839 243.304 132.842 243.408L132.858 244.114C132.859 244.192 132.888 244.296 133.019 244.293L133.673 244.305C134.981 244.301 135.956 245.743 135.991 247.286L136.045 249.639C136.133 253.509 136.02 257.697 136.005 258.194C135.914 259.949 135.515 260.795 134.94 260.808L134.025 260.829C133.894 260.832 133.87 260.911 133.872 260.989L133.887 261.669C133.891 261.853 133.919 261.904 134.023 261.902C134.285 261.896 136.087 261.776 136.897 261.757C138.126 261.729 139.697 261.772 139.958 261.766C140.141 261.762 140.166 261.709 140.163 261.552L140.148 260.925C140.145 260.768 140.116 260.69 139.934 260.694L139.28 260.709C138.182 260.734 137.693 259.96 137.606 258.445C137.557 257.452 137.249 254.242 137.199 252.072L137.079 246.791L137.287 246.786C137.909 247.635 141.619 252.049 142.076 252.562C142.586 253.125 144.735 255.588 146.668 257.767C148.279 259.588 149.592 260.944 150.046 261.352C150.34 261.633 150.683 261.756 151.075 261.747C151.441 261.739 151.457 261.268 151.448 260.875L151.346 256.405C151.267 252.953 151.55 247.035 151.693 245.279C151.75 244.336 152.001 243.885 152.445 243.875L153.177 243.859C153.282 243.856 153.306 243.751 153.303 243.62L153.288 242.993C153.285 242.836 153.258 242.784 153.022 242.79C152.735 242.796 152.109 242.889 150.54 242.925C148.605 242.969 147.767 242.91 147.479 242.916C147.27 242.921 147.245 242.974 147.248 243.105L147.263 243.758C147.267 243.916 147.295 243.993 147.426 243.99L148.262 243.971C148.864 243.957 149.499 244.309 149.671 244.959C149.759 245.35 149.948 247.909 149.997 248.927C150.079 250.234 150.135 251.514 150.188 253.841L150.243 256.22ZM113.75 248.888C113.157 252.262 112.955 254.006 113.198 255.19C113.526 256.948 114.446 258.358 115.587 259.116C116.587 259.77 118.204 260.241 119.415 260.454C121.089 260.749 122.945 260.465 124.255 259.66C125.803 258.711 126.784 257.211 127.31 255.126C127.564 254.135 128.409 249.637 128.473 249.276C128.536 248.915 129.162 245.361 129.277 245.01C129.374 244.761 129.578 244.054 130.557 244.226L131.355 244.366C131.484 244.389 131.528 244.291 131.555 244.136L131.655 243.57C131.677 243.441 131.67 243.333 131.438 243.293C131.206 243.252 130.368 243.183 128.977 242.939C127.226 242.63 126.055 242.345 125.797 242.3C125.643 242.272 125.608 242.319 125.585 242.448L125.467 243.118C125.445 243.246 125.457 243.328 125.612 243.355L126.436 243.5C126.874 243.578 127.204 244.114 127.189 244.801C127.188 245.412 126.947 248.29 126.566 250.454L125.867 254.421C125.541 256.275 124.699 257.587 123.506 258.333C122.697 258.854 121.22 259.099 120.267 258.931C119.108 258.727 117.97 258.102 117.301 256.922C116.862 256.101 116.834 254.901 117.017 253.712C117.136 252.883 117.609 249.594 117.849 248.229L118.149 246.529C118.38 245.216 118.714 243.468 118.79 243.19C118.932 242.684 119.456 242.272 120.332 242.426L121.207 242.58C121.387 242.611 121.423 242.564 121.445 242.436L121.563 241.766C121.59 241.612 121.573 241.556 121.367 241.519C121.084 241.47 119.834 241.329 117.568 240.93C114.863 240.454 113.615 240.154 113.357 240.109C113.151 240.073 113.116 240.12 113.089 240.274L112.98 240.892C112.949 241.073 112.965 241.129 113.12 241.156L114.33 241.369C114.871 241.465 114.979 241.908 114.82 242.81L113.75 248.888ZM96.4964 248.129C96.8439 247.455 97.2297 247.448 97.6484 247.663L98.3228 248.011C98.462 248.083 98.5093 248.048 98.5813 247.908L98.8806 247.327C98.9402 247.211 98.9529 247.129 98.767 247.033C98.5807 246.937 97.6847 246.564 95.5457 245.463C93.4531 244.386 92.3496 243.729 92.1401 243.621C92.0012 243.55 91.9414 243.607 91.8938 243.7L91.5945 244.282C91.5347 244.398 91.5103 244.503 91.6492 244.575L92.6263 245.078C93.2074 245.377 93.3199 245.729 92.889 246.566L92.0273 248.24C91.4045 249.45 90.9751 250.17 90.3671 250.151C89.4084 250.127 88.7094 249.886 87.5004 249.263C85.9192 248.449 85.2871 247.506 84.757 245.85C84.1479 243.948 84.6139 241.158 86.0264 238.415C87.1035 236.322 88.8877 234.799 90.6154 234.071C92.4026 233.285 93.7689 233.488 95.0247 234.135C96.6053 234.949 97.4919 236.14 97.956 237.468C98.4886 238.89 98.4668 240.761 98.2522 242.092C98.2145 242.336 98.2599 242.419 98.4115 242.468L99.1343 242.663C99.2395 242.688 99.3223 242.584 99.443 242.293L101.561 237.323C101.692 237.067 101.706 236.869 101.45 236.737C101.311 236.665 101.228 236.711 101.028 236.814L100.604 237.066C100.368 237.18 100.182 237.143 99.9867 236.837C99.4708 235.953 98.0626 234.405 95.7138 233.195C92.9236 231.759 90.424 231.472 87.9604 232.086C85.5088 232.677 83.3479 234.418 82.2588 236.534C80.8101 239.347 80.5133 241.695 81.1057 244.03C81.7404 246.739 84.0659 248.907 86.4839 250.152C89.4367 251.672 91.6889 252.155 94.0629 252.171C94.3432 252.198 94.5303 252.176 94.6264 251.99C94.7222 251.804 94.7491 251.524 94.9164 251.199L96.4964 248.129ZM72.6582 235.849L72.5765 235.785C72.5612 235.339 72.5323 229.217 72.5201 228.641C72.5045 227.396 72.3688 219.256 72.3639 219.052C72.3452 218.738 72.2466 218.526 71.9796 218.315C71.7332 218.121 71.0852 217.675 70.3876 217.124C69.3204 216.281 68.6798 215.742 68.2857 215.397C67.896 215.089 67.7477 214.939 67.6454 214.858C67.5425 214.777 67.4895 214.801 67.4249 214.883L66.9869 215.438C66.9384 215.499 66.8942 215.598 66.9965 215.679L67.4935 216.104C68.5034 216.935 68.3345 218.668 67.3778 219.879L65.9188 221.726C63.5193 224.763 60.7612 227.917 60.4326 228.29C59.2438 229.584 58.3965 229.981 57.945 229.624L57.2269 229.058C57.1243 228.976 57.0552 229.022 57.0067 229.083L56.5852 229.617C56.4715 229.76 56.4599 229.818 56.5415 229.882C56.7467 230.044 58.2114 231.102 58.8475 231.604C59.8121 232.366 60.995 233.4 61.1997 233.563C61.3437 233.676 61.3967 233.651 61.4939 233.528L61.8831 233.036C61.9804 232.913 62.0081 232.835 61.8647 232.721L61.3519 232.316C60.4899 231.635 60.6067 230.727 61.5061 229.505C62.1017 228.709 63.911 226.039 65.2566 224.336L68.5315 220.19L68.6953 220.32C68.6327 221.37 68.6761 227.137 68.7007 227.823C68.7339 228.583 68.8192 231.85 68.9187 234.761C68.9989 237.191 69.1449 239.073 69.2345 239.677C69.2818 240.081 69.4675 240.394 69.7756 240.637C70.0628 240.864 70.3752 240.511 70.6184 240.203L73.3907 236.694C75.5305 233.985 79.5226 229.607 80.7525 228.346C81.398 227.656 81.8787 227.469 82.2274 227.744L82.802 228.199C82.8842 228.263 82.9695 228.197 83.0506 228.095L83.4398 227.602C83.537 227.479 83.5489 227.422 83.3641 227.276C83.1382 227.098 82.5973 226.77 81.3662 225.797C79.8477 224.598 79.2391 224.017 79.0137 223.839C78.8496 223.71 78.7963 223.734 78.7155 223.837L78.3102 224.35C78.213 224.473 78.1849 224.551 78.2878 224.632L78.944 225.151C79.4163 225.523 79.6816 226.2 79.3995 226.81C79.2181 227.167 77.7316 229.259 77.1202 230.075C76.35 231.134 75.5764 232.155 74.1336 233.982L72.6582 235.849ZM54.2114 214.023C53.2074 214.978 49.06 218.814 48.74 219.047C48.2128 219.403 47.7776 219.06 47.4174 218.681L46.8944 218.131C46.8042 218.036 46.7124 218.015 46.6364 218.087L46.125 218.574C46.0111 218.682 46.0273 218.775 46.1177 218.87C46.3158 219.079 47.1478 219.839 49.0402 221.829C50.7523 223.629 51.4165 224.441 51.6328 224.668C51.7408 224.782 51.8326 224.803 51.9086 224.731L52.4392 224.226C52.5339 224.136 52.518 224.043 52.4276 223.949L51.6886 223.172C51.3462 222.811 51.1707 222.438 51.7581 221.878C51.929 221.716 56.2521 217.496 56.4415 217.316L57.9007 215.928C58.1281 215.712 62.3701 211.786 62.5595 211.605C62.9005 211.281 63.3223 211.421 63.773 211.895L64.296 212.444C64.3858 212.539 64.4782 212.56 64.5729 212.469L65.0463 212.019C65.1603 211.911 65.1807 211.819 65.0908 211.724C64.8382 211.459 64.205 210.906 62.3664 208.973C60.6004 207.116 59.7379 206.096 59.5213 205.868C59.4493 205.793 59.3572 205.772 59.2815 205.844L58.7319 206.366C58.6564 206.439 58.6723 206.532 58.7625 206.626L59.6279 207.536C60.006 207.934 59.997 208.304 59.5783 208.774C59.3498 209.027 55.993 212.328 55.5381 212.761L54.2114 214.023ZM45.3129 204.837C47.5872 204.65 55.4247 204.46 55.9607 204.52C56.5684 204.595 57.1249 205.171 57.2944 205.434L57.5492 205.83C57.6482 205.984 57.7284 205.964 57.8605 205.879L58.3886 205.54C58.5204 205.455 58.5499 205.405 58.4509 205.25C58.3239 205.053 57.9467 204.611 56.971 203.093C55.9244 201.465 55.4102 200.521 55.2685 200.301C55.1837 200.169 55.1256 200.176 55.0377 200.232L54.466 200.6C54.3339 200.685 54.282 200.749 54.3668 200.881L54.7486 201.475C55.0454 201.937 54.9122 202.552 54.5383 202.792C53.8563 203.23 47.5177 203.575 45.8835 203.693C46.7773 202.279 50.1315 196.422 50.5275 196.167C50.8793 195.941 51.2407 196.02 51.4389 196.328L51.764 196.834C51.849 196.966 51.9511 196.931 52.0614 196.86L52.6113 196.507C52.7213 196.436 52.751 196.386 52.6663 196.254C52.5245 196.034 51.9497 195.284 50.4927 193.018C49.2341 191.061 48.6351 189.985 48.5079 189.787C48.4228 189.655 48.365 189.661 48.2768 189.717L47.6609 190.113C47.573 190.17 47.5211 190.235 47.6059 190.367L47.8179 190.697C48.0444 191.048 48.2079 191.69 48.0475 192.165C47.6535 193.196 43.4931 200.846 43.0376 201.636L42.0916 202.245C40.0459 203.56 38.2799 204.634 37.9576 204.809C37.6574 204.972 37.3246 204.937 36.957 204.365L36.462 203.595C36.377 203.463 36.2965 203.484 36.2089 203.54L35.6808 203.879C35.5269 203.979 35.4892 204.065 35.5456 204.153C35.7015 204.395 36.2058 205.034 37.6767 207.322C39.0064 209.39 39.492 210.29 39.6618 210.554C39.7604 210.708 39.8265 210.666 39.9586 210.581L40.5085 210.227C40.5964 210.171 40.6624 210.128 40.5635 209.974L40.1533 209.336C39.9268 208.984 39.7811 208.612 40.4424 208.093C40.6261 207.944 42.0137 206.959 42.8717 206.407L45.3129 204.837ZM33.4153 182.048C34.0976 181.969 40.6601 181.472 41.0235 181.451C41.2744 181.423 41.4017 181.452 41.4666 181.595C41.5204 181.714 41.3753 181.837 41.0567 182.096C40.5365 182.532 36.1556 186.205 35.5374 186.743L33.4153 182.048ZM34.6813 187.388C33.9565 188.06 31.3381 190.363 30.5813 190.963C30.026 191.386 29.6946 191.278 29.4038 190.634L29.1022 189.967C29.0483 189.847 28.9426 189.867 28.8235 189.921L28.3708 190.126C28.2039 190.201 28.0715 190.289 28.1789 190.528C28.3946 191.004 28.8431 191.806 29.7371 193.784C31.1156 196.834 31.2707 197.367 31.475 197.82C31.5612 198.01 31.7387 197.959 31.8818 197.894L32.3348 197.69C32.4541 197.636 32.5383 197.569 32.4737 197.426L32.1077 196.616C31.9459 196.258 31.9479 195.511 32.5511 194.75C33.0398 194.128 36.7565 190.583 38.3678 189.194C39.6921 188.05 44.2023 183.774 45.5026 182.641C45.7364 182.449 45.8577 182.336 45.7931 182.193C45.7393 182.074 45.612 182.046 45.4348 181.982C44.8682 181.808 43.5486 180.539 43.0367 179.852C42.9029 179.683 42.7864 179.678 42.715 179.71C42.6192 179.753 42.5432 179.903 42.4763 180.019C42.2895 180.304 41.9258 180.325 41.6551 180.361C40.9153 180.438 34.9072 180.828 34.34 180.855C31.8875 181.017 26.9923 181.192 26.3449 181.082C25.4146 180.929 24.8261 180.506 24.5679 179.934L24.2878 179.314C24.2229 179.171 24.1407 179.18 23.9978 179.244L23.5451 179.449C23.3782 179.525 23.2458 179.613 23.3104 179.756C23.4615 180.09 23.7699 180.581 24.5562 182.322C25.4395 184.276 25.8094 185.285 25.9497 185.595C26.0359 185.786 26.1181 185.777 26.3089 185.691L26.8327 185.454C26.9283 185.411 27.0127 185.344 26.9053 185.106L26.5283 184.271C26.2051 183.556 26.676 183.085 27.2001 182.848C27.9589 182.505 31.7398 182.203 32.3223 182.169L34.6813 187.388ZM29.3848 166.389C28.0519 166.77 22.5989 168.245 22.2072 168.303C21.5747 168.375 21.3488 167.868 21.2051 167.365L20.9965 166.636C20.9608 166.51 20.889 166.449 20.7887 166.478L20.1092 166.671C19.9584 166.715 19.9298 166.804 19.9658 166.93C20.0446 167.207 20.4293 168.266 21.183 170.907C21.8653 173.296 22.0768 174.324 22.1632 174.625C22.2063 174.776 22.2777 174.837 22.3784 174.808L23.0828 174.607C23.2084 174.571 23.237 174.482 23.2013 174.356L22.9067 173.325C22.7704 172.847 22.7885 172.434 23.5681 172.211C23.7943 172.147 29.5818 170.413 29.8332 170.341L31.7696 169.788C32.0712 169.702 37.6503 168.191 37.9017 168.119C38.3544 167.989 38.6634 168.309 38.8428 168.937L39.0512 169.667C39.0869 169.793 39.1589 169.854 39.2848 169.818L39.9135 169.638C40.0643 169.595 40.125 169.523 40.0892 169.398C39.9886 169.046 39.6836 168.262 38.9514 165.697C38.2476 163.233 37.9567 161.929 37.8706 161.627C37.8416 161.527 37.7699 161.465 37.6693 161.494L36.9399 161.702C36.8396 161.731 36.8107 161.821 36.8464 161.946L37.1911 163.154C37.3422 163.682 37.1625 164.005 36.5734 164.228C36.2537 164.346 31.7489 165.714 31.1451 165.887L29.3848 166.389ZM26.6505 153.467C24.7572 153.712 17.2729 154.971 15.3085 154.671C14.3416 154.533 13.6454 154.043 13.5748 153.498C14.5513 152.897 15.5412 152.189 15.3734 150.892C15.2558 149.984 14.3937 149.436 13.5119 149.55C12.1113 149.732 11.8054 151.038 11.8961 151.738C12.2856 154.746 14.5097 156.647 16.632 157.559C18.1953 158.227 19.334 158.264 20.7085 158.086C21.3049 158.009 23.86 157.783 27.1542 157.357L28.347 157.202C31.4852 156.796 34.8117 156.418 35.2304 156.39C35.7259 156.352 35.964 156.559 36.0544 157.259L36.172 158.167C36.1924 158.323 36.2508 158.368 36.4062 158.348L37.055 158.264C37.2107 158.243 37.2554 158.185 37.2356 158.029C37.1851 157.641 36.9898 156.743 36.661 154.201C36.2914 151.348 36.2449 150.378 36.2078 150.093C36.1876 149.937 36.1324 149.918 36.0031 149.935L35.2505 150.032C35.147 150.046 35.1309 150.127 35.1445 150.23L35.2587 151.112C35.373 151.994 35.0753 152.138 34.5251 152.368C33.4718 152.584 28.8808 153.178 28.4661 153.232L26.6505 153.467ZM156.462 207.55C156.676 207.449 156.876 207.373 157.064 207.32C158.503 206.915 159.589 207.619 160.099 209.433C160.683 211.509 159.862 212.749 158.198 213.217L157.561 213.396L157.766 214.125L158.496 213.92C160.404 213.383 161.732 214.16 162.311 216.217C162.9 218.312 162.128 219.658 160.184 220.206C159.922 220.279 159.711 220.318 159.471 220.325L158.656 218.577C158.135 217.371 157.568 217.147 156.819 217.358C156.334 217.495 155.915 217.874 155.897 218.526C156.654 220.573 158.498 221.386 161.34 220.587C164.538 219.687 166.041 217.569 165.404 215.307C164.894 213.492 163.497 212.473 160.459 212.863C162.897 211.632 163.499 210.111 163.052 208.521C162.505 206.577 160.718 205.606 157.745 206.442C155.482 207.079 153.787 208.585 154.362 210.845C154.667 211.142 155.118 211.237 155.567 211.111C156.222 210.927 156.712 210.446 156.622 209.483L156.462 207.55ZM148.571 221.712C148.458 220.493 148.345 219.255 148.255 218.073L147.784 211.894L147.621 208.731L147.314 208.54L142.156 210.14L142.21 210.857L144.48 210.47L145.078 218.315C145.168 219.497 145.243 220.737 145.316 221.959L142.573 222.519L142.619 223.12L151.238 222.463L151.193 221.863L148.571 221.712ZM128.227 222.93C133.63 222.347 137.442 219.365 137.784 214.871C138.068 211.152 136.297 208.815 132.946 208.56C130.254 208.355 127.771 209.744 127.521 212.764C127.315 215.476 129.019 217.145 131.556 217.338C132.66 217.423 133.596 217.162 134.251 216.745C133.456 219.763 131.574 221.451 128.175 222.341L128.227 222.93ZM132.864 216.542C131.314 216.424 130.473 214.938 130.652 212.594C130.841 210.114 131.85 209.139 132.935 209.222C134.175 209.317 134.935 210.582 134.658 214.224C134.605 214.921 134.516 215.577 134.391 216.191C133.922 216.467 133.445 216.586 132.864 216.542ZM119.307 219.714C119.612 218.529 119.922 217.325 120.236 216.182L121.877 210.206L122.79 207.173L122.565 206.89L117.17 206.657L116.98 207.351L119.247 207.751L117.164 215.339C116.85 216.481 116.502 217.675 116.159 218.85L113.388 218.452L113.229 219.033L121.565 221.322L121.724 220.74L119.307 219.714ZM223.421 94.4731L223.121 95.1001C223.064 95.7399 223.167 95.6885 222.952 96.3672C223.241 96.44 223.299 96.1143 223.648 96.9814C223.871 97.5333 223.637 96.8799 223.726 97.4656C223.734 97.5155 223.734 97.5722 223.741 97.6209C223.748 97.67 223.753 97.7272 223.761 97.7748C223.768 97.8225 223.778 97.8797 223.787 97.9262C223.914 98.6216 224.165 99.0519 224.269 99.7078C224.441 100.794 225.104 102.093 225.484 103.229C225.249 103.787 225.294 103.186 225.425 103.748L225.609 103.921L226.067 104.739C226.508 105.56 226.51 105.247 226.765 106.168C227.178 107.657 228.19 108.031 228.009 108.974C228.688 109.974 229.879 110.641 230.849 110.642C231.676 110.642 233.12 110.543 233.979 110.926C234.462 110.335 234.254 110.559 234.921 110.28C235.643 107.106 234.037 108.382 232.636 105.108L232.079 104.069C231.721 103.398 230.545 102.405 230.084 100.211C230.067 100.146 229.875 99.7886 229.873 99.784C229.764 99.4986 229.82 99.8827 229.851 99.2236L228.864 97.9466C229.004 97.6056 228.928 97.9869 229.029 97.5282C229.082 97.287 229.062 97.2811 229.078 97.0659C228.936 96.7719 228.831 96.355 228.802 96.0551C228.65 94.5082 230.065 93.7017 230.297 93.3417L230.793 93.8491C231.051 93.2462 231.091 93.3001 232.02 92.6317C232.697 92.1447 232.859 92.0324 233.582 91.7518C234.187 92.4233 234.575 93.032 234.733 93.6768C235.512 94.0521 235.149 93.7034 235.882 94.5176C236.144 94.3744 235.933 94.3979 236.325 94.3183L236.993 94.2766C237.015 93.5611 237.094 93.8336 237.761 93.0461C237.43 91.0967 236.458 91.3121 236.001 89.9901C235.854 89.9047 235.602 89.8132 235.582 89.7996C235.383 89.6668 235.086 89.388 234.892 89.1626L234.039 87.9763C233.739 87.4111 234.11 87.9497 233.691 87.4094C233.68 87.3964 233.478 87.1441 233.444 87.1154C233.165 86.8836 233.481 87.0616 233.157 86.9904L233.027 86.7124C232.381 86.125 232.366 85.8265 231.899 85.5414L231.009 84.2941C230.612 84.2666 230.465 83.9817 230.15 83.5569C230.394 82.7742 230.263 84.246 229.998 83.3132C229.889 82.9288 229.747 83.1802 230.119 82.8554C228.824 81.9701 228.683 82.5427 227.515 82.2833C227.182 83.5354 227.042 82.3029 226.589 83.4058C226.884 84.2466 226.434 84.3461 226.453 84.7801C226.876 85.758 226.924 85.2192 227.068 85.8159C227.159 86.1915 227.063 86.5923 226.994 86.9406C226.083 87.037 226.019 87.693 225.499 86.9888C225.012 86.8071 224.559 87.3347 222.57 86.5832C221.685 86.2481 220.471 86.0565 219.525 86.2918C219.301 86.8715 219.416 86.63 219.463 86.8627C218.826 87.7117 218.872 87.7321 218.964 88.7066C219.608 89.095 219.919 89.5494 221.224 89.5616C222.152 89.5706 225.976 90.8615 228.679 89.4093C229.736 88.6995 229.375 89.2693 230.303 88.8594L230.936 89.4669C230.814 90.1138 231.276 89.3549 230.59 90.1798L229.929 90.5404C229.443 90.508 229.951 90.8859 229.201 90.7031C228.748 90.9052 228.357 91.1983 227.767 91.3848C226.991 91.6297 227.709 91.2544 227.159 91.4968C226.007 92.0053 226.712 91.8437 226.659 92.1099L226.25 92.2134C225.267 92.2241 225.693 92.3007 225.1 92.691C224.097 93.3503 223.672 93.1239 223.557 94.4397L223.421 94.4732L223.421 94.4731ZM218.113 79.3726L217.771 79.2975L217.161 78.6064C217.384 78.3176 217.712 77.9405 217.812 77.7787C218.112 77.2991 217.822 77.6704 218.044 77.2427L218.634 77.2838L218.902 77.6446C218.87 77.2551 218.824 77.3895 219.069 76.951C219.535 77.2427 219.597 77.1678 220.021 77.1908C220.353 77.8558 220.375 77.9754 220.646 78.7462C220.179 78.9446 220.332 79.0208 220.358 79.3882L219.223 79.6887C218.123 79.7658 219.031 79.5699 218.113 79.3726ZM227.36 70.0622L228.269 70.0387C229.009 70.1436 229.927 70.4894 229.64 71.4172C229.941 71.5555 230.096 71.5977 230.346 71.6556C229.923 72.201 230.049 71.7038 230.222 72.2636L230.475 72.811L229.958 73.2452C229.783 73.4777 229.698 73.6239 229.365 73.7714C228.178 74.2969 228.631 73.8229 227.064 73.8935C225.839 72.0822 225.491 72.5771 226.288 70.7655C226.763 70.499 226.834 70.4996 227.36 70.0622ZM205.515 84.1243C205.807 84.8806 205.981 84.941 206.229 85.1955C206.472 85.314 206.88 85.7744 207.614 85.4679C209.736 84.5827 213.077 80.1896 215.16 81.102C215.538 81.2673 215.298 81.1431 215.676 81.4342C217.017 82.4706 216.728 82.0641 218.133 82.7195C218.911 83.0823 218.295 83.0985 219.404 82.9151C220.132 82.7949 220.018 83.046 220.567 82.7881C221.304 82.442 220.722 82.6342 221.659 82.4811C221.947 82.1911 222.047 82.027 222.191 81.938C222.665 81.6434 222.166 82.1684 222.773 81.6828C223.441 81.1491 223.06 80.9172 223.684 80.4841C224.168 79.9441 224.323 80.06 224.127 79.3627C224.55 78.5798 224.01 77.4363 223.504 76.5978C222.601 75.1048 222.219 75.1232 222.836 74.2127C223.369 74.1569 223.887 74.213 224.262 74.3882C224.746 74.6149 225.055 75.3843 226.344 76.2383C226.635 76.4314 228.44 76.8997 228.872 76.8376C229.585 76.7353 232.266 75.3502 233.127 74.8284C233.666 74.5016 234.034 74.3275 234.24 73.8388C235.675 70.4265 232.997 70.8162 231.683 67.3625C231.129 65.9086 231.313 64.7101 231.289 64.5678C231.094 63.3861 230.058 62.7953 228.972 63.4204C226.692 64.7325 223.644 68.3974 222.871 68.8649C222.194 69.2737 221.931 69.5594 221.3 70.0086C219.211 71.496 220.766 70.1974 218.753 71.992C217.697 72.934 213.964 75.6232 211.499 77.307C209.287 78.9868 207.914 80.4314 206.974 81.0232C206.151 81.542 206.012 81.5953 205.635 82.2577C205.001 82.938 205.174 83.1444 205.515 84.1243ZM240.887 84.9764L241.227 85.1227C241.254 85.1326 241.338 85.4611 241.352 85.5819C241.897 86.542 242.445 87.5134 242.881 88.3338L242.561 88.7408L241.882 89.4367L241.56 89.5493L241.028 90.0771L240.68 90.4771L240.892 90.7784L241.294 91.1075C241.346 91.4706 241.024 90.7577 241.388 91.508C241.65 92.0514 242.18 92.1946 242.869 92.397C244.704 92.937 246.527 90.199 246.581 90.011L246.506 89.1394L246.96 88.7751C246.943 88.4985 246.747 87.5245 246.684 87.3354C246.52 86.8445 246.143 86.7492 245.884 86.112C245.471 85.9311 245.433 86.0173 244.852 85.3928C244.847 85.3886 244.251 84.6088 244.241 84.5898L244.128 84.1909C243.816 83.3227 243.83 84.0073 243.635 83.0891L244.713 82.243C245.078 81.7849 244.535 82.415 244.872 81.9694C245.172 81.5734 244.842 81.8594 245.319 81.525L245.278 81.0785L246.183 80.1014C246.424 79.0676 245.965 80.0359 246.15 78.8159C246.195 78.5171 246.223 78.4531 246.087 78.1115C245.904 77.6491 245.755 77.8779 245.828 77.2225C245.778 77.2163 245.74 77.1775 245.677 77.2052L245.38 77.1636C244.52 77.0028 244.082 76.5901 242.88 77.7297C242.553 77.6925 242.987 77.8617 242.403 77.6531C242.371 78.2742 242.401 77.9706 242.063 78.4607C242.083 78.5511 242.246 79.1081 242.235 79.1005L241.305 79.6925L240.428 79.3671L240.207 78.6381L239.872 78.5213C239.905 78.0249 239.877 78.0397 239.763 77.6302C239.268 77.6195 239.159 77.281 238.324 76.5542L237.93 75.8407C237.481 75.8592 237.282 75.6687 236.93 75.5831C236.142 75.3912 235.524 75.3175 234.998 75.6471L234.306 75.5641C234.13 75.8954 234.283 75.8609 234.266 76.052C233.837 76.1835 232.344 77.9651 232.002 78.4104C231.221 79.4264 231.647 79.417 231.197 80.1092C230.981 80.4415 231.028 80.088 230.811 81.3106L230.849 82.4044L230.78 82.5884C231.224 83.0448 231.138 83.04 231.695 83.311L231.519 83.7359L231.77 83.9541C232.058 84.6943 232.547 84.9712 232.921 85.5854L233.179 85.4462C233.755 85.9641 234.398 86.3346 234.795 86.7578C235.618 87.6371 234.378 86.8159 235.918 88.1788C235.964 88.2193 236.005 88.2542 236.049 88.2953C237.603 89.7226 237.128 90.4831 239.318 90.5614C240.148 89.9939 239.623 90.3349 239.96 90.3813L240.207 89.6077C240.262 89.2599 240.057 88.2026 239.817 87.7015L240.093 87.4117C238.847 87.1685 240.058 87.4013 238.29 85.9426L236.332 83.8475C235.929 83.6439 236.088 83.6442 235.628 83.4367L235.227 82.7079C235.236 82.1223 235.33 82.4157 235.117 81.8782L234.926 80.8739C235.27 80.3376 235.171 80.5732 235.536 80.1582C236.119 80.6239 235.933 80.318 236.385 80.9938C237.122 81.4329 236.911 81.6569 237.695 81.4196C238.654 83.2091 238.17 82.0455 238.733 82.5228C239.041 83.0226 239.424 83.6224 239.73 83.9946C239.797 84.0765 240.248 84.5839 240.31 84.6446C241.008 85.3274 240.52 85.0528 240.887 84.9762L240.887 84.9764ZM139.387 0C216.357 0 278.777 62.4197 278.777 139.387C278.777 216.355 216.357 278.777 139.387 278.777C62.4177 278.777 0 216.357 0 139.387C0 62.4177 62.4194 0 139.387 0Z" fill-rule="evenodd"  fill="#0079C3" >
</path>
</g>
<defs>
<clipPath id="clip-path-oZAKGVZn7A3Nd1AWO_86I">
<path d="M0 278.777L278.777 278.777L278.777 0L0 0L0 278.777Z" fill="white"/>
</clipPath>
</defs>
</svg>
